<?xml version="1.0"?>
<svg xmlns="http://www.w3.org/2000/svg" viewBox="0 0 48 48" width="512" height="512"><g id="_30-lightning" data-name="30-lightning"><polygon points="35 36 37 36 33 42 33 37 31 37 32.71 33 36 33 35 36" style="fill:#ffca6b"/><polygon points="25 39 27 39 23 45 23 40 21 40 22.71 36 26 36 25 39" style="fill:#ffca6b"/><path d="M16.71,24l-.84,2.96L15,30h5L13,47l1-12H8l1.97-7.88.89-3.55A11.086,11.086,0,0,0,14,24a11.749,11.749,0,0,0,2.65-.3Z" style="fill:#ffca6b"/><path d="M43.32,25.5A4.926,4.926,0,0,1,44,28a5,5,0,0,1-5,5H27a5,5,0,0,1-5-5,5.176,5.176,0,0,1,.09-.98,5.024,5.024,0,0,1,4.58-3.99,6.986,6.986,0,0,1,12.66,0A5.015,5.015,0,0,1,43.32,25.5Z" style="fill:#afb4c8"/><path d="M14.28,5.38A12.971,12.971,0,0,0,11.63,10H9.5a8.5,8.5,0,0,0-6.29,2.79L3,12.46A4,4,0,0,1,5,5a4,4,0,0,1,8,0,3.782,3.782,0,0,1,1.01.13Z" style="fill:#afb4c8"/><path d="M16.65,23.7A11.749,11.749,0,0,1,14,24a11.086,11.086,0,0,1-3.14-.43l-.89,3.55L9.5,27a8.5,8.5,0,0,1,0-17h2.13a13,13,0,0,1,24.74,0H38.5a8.5,8.5,0,0,1,4.82,15.5,5.015,5.015,0,0,0-3.99-2.47,6.986,6.986,0,0,0-12.66,0,5.024,5.024,0,0,0-4.58,3.99L22,27H16l-.13-.04L16.71,24Z" style="fill:#e1e4ed"/><path d="M44.407,12.4A8.472,8.472,0,0,0,38.5,10H36.37A12.994,12.994,0,0,0,16.254,3.565,12.949,12.949,0,0,1,32.37,12H34.5A8.506,8.506,0,0,1,43,20.5c0,.168-.021.33-.031.5a8.429,8.429,0,0,1-.807,3.152A4.976,4.976,0,0,1,43.32,25.5a8.488,8.488,0,0,0,1.087-13.1Z" style="fill:#f6fafd"/><path d="M43.32,25.5a4.976,4.976,0,0,0-1.158-1.352A5.029,5.029,0,0,0,39.33,23.03a6.932,6.932,0,0,0-8.83-3.55,6.989,6.989,0,0,1,3.83,3.55,5.015,5.015,0,0,1,3.99,2.47A5.176,5.176,0,0,1,39,28a5,5,0,0,1-5,5h5a5,5,0,0,0,5-5A4.926,4.926,0,0,0,43.32,25.5Z" style="fill:#cdd2e1"/><path d="M14.01,5.13a3.722,3.722,0,0,0-.919-.124C13.06,5.005,13.031,5,13,5a3.964,3.964,0,0,0-.857-2.448A12.941,12.941,0,0,0,9.63,7H7.5A8.5,8.5,0,0,0,1.21,9.79c-.035.038-.065.08-.1.119a3.975,3.975,0,0,0,1.808,2.5,8.494,8.494,0,0,1,.917-.235,8.491,8.491,0,0,1,4.617-2.1A8.6,8.6,0,0,1,9.5,10h2.13a12.971,12.971,0,0,1,2.65-4.62Z" style="fill:#99a1b1"/><path d="M22.67,23.03A5.022,5.022,0,0,0,18.1,27H22l.09.02a5.024,5.024,0,0,1,4.58-3.99A7,7,0,0,1,31,19.292a6.988,6.988,0,0,0-8.33,3.738Z" style="fill:#cdd2e1"/><polygon points="36 33 32.71 33 31.427 36 35 36 36 33" style="fill:#f3b55e"/></g></svg>
